<svg enable-background="new 0 0 153 23" viewBox="0 0 153 23" xmlns="http://www.w3.org/2000/svg"><g fill="#fff"><path d="m36.8 8.7c-.5-1.1-1.3-2-2.3-2.6-1-.7-2.1-1-3.5-1s-2.5.4-3.3 1l-.1-4.1h-3.6l.1 17.5h3.2v-.9l.3.3c.9.7 2.1 1 3.5 1 1.3 0 2.4-.4 3.4-1s1.8-1.5 2.3-2.6.8-2.4.8-3.8-.2-2.7-.8-3.8zm-3.3 5.9c-.2.6-.6 1.1-1.1 1.5s-1.1.6-1.9.6-1.4-.2-1.9-.6c-.4-.4-.8-.9-1-1.5s-.3-1.4-.3-2.2.1-1.6.3-2.2.5-1.1 1-1.5c.5-.3 1.1-.5 1.8-.5.8 0 1.5.2 2 .6.5.3.9.9 1.1 1.5.3.6.4 1.3.4 2.1s-.2 1.6-.4 2.2z"/><path d="m45.2 5.5c-.4 0-.8.1-1.2.2s-.8.3-1.1.5c-.4.3-.8.6-1.1 1-.2.2-.3.4-.4.6v-2.3h-3.1v14l3.4.1v-7.2c0-.5.1-1 .2-1.4.2-.4.4-.8.7-1.1.3-.4.7-.6 1.1-.8s.9-.4 1.4-.4c.5-.1 1 0 1.4.1v-3.3z"/><path d="m74.4 10.5c0-.5-.1-1.1-.3-1.7-.1-.6-.4-1.2-.8-1.8s-.9-1-1.6-1.4-1.6-.6-2.7-.6c-1.4 0-2.6.3-3.6 1-.4.2-.7.5-1 .8v-1.3h-3.2v14h3.6v-8.4c0-.3.1-.6.2-.8.2-.5.5-.9.8-1.2s.7-.5 1-.6c.4-.1.7-.1 1-.1.8 0 1.4.2 1.8.5.4.4.7.8.9 1.3s.3 1 .3 1.5c.1.5.1.9.1 1.2v6.6h3.6v-7.9c0-.2-.1-.6-.1-1.1z"/><path d="m84 16.1c-.4.3-1 .5-1.8.5-1 0-1.8-.3-2.4-1.1-.5-.8-.8-1.8-.8-3 0-.8.1-1.5.3-2.1.3-.7.6-1.1 1.1-1.5.4-.3 1-.5 1.8-.5.7 0 1.3.2 1.8.6s.9 1 1.1 1.7l3.6-.9c-.3-1.4-1.1-2.6-2.2-3.4-1.1-.9-2.5-1.3-4.2-1.3-1.4 0-2.6.4-3.7 1s-1.9 1.5-2.5 2.6-.9 2.4-.9 3.8.2 2.7.8 3.8c.5 1.1 1.3 1.9 2.4 2.6s2.3 1 3.8 1c1.7 0 2.9-.4 4-1.2s1.9-1.9 2.3-3.4l-3.6-.8c-.2.7-.5 1.2-.9 1.6z"/><path d="m103.1 10.5c0-.5-.1-1.1-.3-1.7-.1-.6-.4-1.2-.8-1.8s-.9-1-1.6-1.4-1.6-.6-2.7-.6c-1.4 0-2.5.3-3.6 1-.4.2-.7.5-1 .9l-.1-4.9h-3.2l.1 17.5h3.6v-8.4c0-.3.1-.6.2-.8.2-.5.5-.9.8-1.2s.7-.5 1-.6c.4-.1.7-.1 1-.1.8 0 1.4.2 1.8.5.4.4.7.8.9 1.3s.3 1 .3 1.5c.1.5.1.9.1 1.2v6.6h3.6v-7.9c0-.2-.1-.6-.1-1.1z"/><path d="m117.8 13.5c.2-1.7 0-3.1-.5-4.4-.5-1.2-1.3-2.2-2.3-2.9-1.1-.7-2.3-1-3.8-1-1.4 0-2.6.3-3.7.9-1 .6-1.9 1.5-2.5 2.6s-.9 2.5-.9 4c0 1.4.3 2.6.9 3.7s1.5 2 2.6 2.6 2.4.9 3.8.9c1.3 0 2.6-.4 3.8-1.1 1.1-.7 2-1.7 2.5-3l-3.6-1c-.2.6-.6 1-1.1 1.3s-1.1.5-1.8.5c-1.1 0-1.9-.4-2.5-1.1-.5-.5-.7-1.2-.8-2.1h6.4v.1zm-9.8-2.7c.1-.6.4-1.1.7-1.5.6-.7 1.5-1.1 2.7-1.1 1 0 1.7.3 2.2.9.3.4.5 1 .6 1.7z"/><path d="m125.3 5.5c-.4 0-.8.1-1.2.2s-.8.3-1.1.5c-.4.3-.8.6-1.1 1-.2.2-.3.4-.4.6v-2.3h-3.1v14l3.4.1v-7.2c0-.5.1-1 .2-1.4.2-.4.4-.8.7-1.1.3-.4.7-.6 1.1-.8s.9-.4 1.4-.4c.5-.1 1 0 1.4.1v-3.3z"/><path d="m149.4 4.4v-2.4h3.6v2.4zm0 15.1v-14h3.6v14z"/><path d="m56.8 5.4v2.1c-.9-1.1-2.2-1.6-3.9-1.6-1.3 0-2.4.3-3.4.8-.9.5-1.7 1.3-2.3 2.3s-.9 2.2-.9 3.5.3 2.5.9 3.5c.5 1 1.3 1.8 2.3 2.3s2.2.8 3.4.8c1.8 0 3.2-.6 4.1-1.7v2.1h3.3v-14zm-.8 9.6c-.6.7-1.4 1-2.4 1s-1.8-.4-2.4-1c-.7-.6-1-1.5-1-2.6s.4-2 1-2.6c.6-.7 1.4-1 2.4-1s1.8.3 2.4 1c.7.6 1 1.5 1 2.6s-.4 1.9-1 2.6z"/><path d="m148.1 5.5v14h-3.3v-2.1c-.9 1.1-2.3 1.7-4.1 1.7-1.2 0-2.4-.3-3.4-.8s-1.8-1.3-2.3-2.3c-.6-1-.9-2.2-.9-3.5s.3-2.5.9-3.5 1.4-1.8 2.3-2.3c1-.5 2.1-.8 3.4-.8 1.7 0 3 .5 3.9 1.6v-2.1zm-6.7 10.5c1 0 1.8-.3 2.4-1s1-1.5 1-2.6-.3-2-1-2.6c-.6-.7-1.4-1-2.4-1s-1.8.3-2.4 1c-.6.6-1 1.5-1 2.6s.3 2 1 2.6c.6.6 1.4 1 2.4 1z"/><path d="m131.7 17.4c0 1.4-1.2 2.6-2.6 2.6s-2.6-1.2-2.6-2.6 1.2-2.6 2.6-2.6 2.6 1.2 2.6 2.6z"/><path d="m0 10h20v3h-20z"/><path d="m3 0v2c0 1.7 1.3 3 3 3h8v3h-9c-2.8 0-5-2.2-5-5v-3z"/><path d="m3 23v-2c0-1.7 1.3-3 3-3h8v-3h-9c-2.8 0-5 2.2-5 5v3z"/></g></svg>